<svg xmlns="http://www.w3.org/2000/svg" version="1.1" xmlns:xlink="http://www.w3.org/1999/xlink" xmlns:svgjs="http://svgjs.dev/svgjs" width="1000" height="1000" viewBox="0 0 1000 1000"><g transform="matrix(1,0,0,1,-0.14221556886212738,-0.14221556886229791)"><svg viewBox="0 0 334 334" data-background-color="#ffffff" preserveAspectRatio="xMidYMid meet" height="1000" width="1000" xmlns="http://www.w3.org/2000/svg" xmlns:xlink="http://www.w3.org/1999/xlink"><g id="tight-bounds" transform="matrix(1,0,0,1,0.04749999999998522,0.04750000000001364)"><svg viewBox="0 0 333.90454557049503 333.90454557049503" height="333.90454557049503" width="333.90454557049503"><g><svg></svg></g><g><svg viewBox="0 0 333.90454557049503 333.90454557049503" height="333.90454557049503" width="333.90454557049503"><g><path d="M0 166.952c0-92.205 74.747-166.952 166.952-166.952 92.205 0 166.952 74.747 166.953 166.952 0 92.205-74.747 166.952-166.953 166.953-92.205 0-166.952-74.747-166.952-166.953zM166.952 325.727c87.689 0 158.775-71.086 158.775-158.775 0-87.689-71.086-158.775-158.775-158.775-87.689 0-158.775 71.086-158.775 158.775 0 87.689 71.086 158.775 158.775 158.775z" data-fill-palette-color="tertiary" fill="#4394f1" stroke="transparent"></path><ellipse rx="160.27418187383762" ry="160.27418187383762" cx="166.95227278524752" cy="166.95227278524752" fill="#4394f1" stroke="transparent" stroke-width="0" fill-opacity="1" data-fill-palette-color="tertiary"></ellipse></g><g transform="matrix(1,0,0,1,104.84838692291959,71.17305217166896)"><svg viewBox="0 0 124.20777172465584 191.55844122715712" height="191.55844122715712" width="124.20777172465584"><g><svg viewBox="0 0 124.20777172465584 191.55844122715712" height="191.55844122715712" width="124.20777172465584"><g><svg viewBox="0 0 213.1584412271571 328.7418989079199" height="191.55844122715712" width="124.20777172465584"><g transform="matrix(1,0,0,1,0,173.1320816767887)"><svg viewBox="0 0 213.1584412271571 155.60981723113125" height="155.60981723113125" width="213.1584412271571"><g id="textblocktransform"><svg viewBox="0 0 213.1584412271571 155.60981723113125" height="155.60981723113125" width="213.1584412271571" id="textblock"><g><svg viewBox="0 0 213.1584412271571 155.60981723113125" height="155.60981723113125" width="213.1584412271571"><g transform="matrix(1,0,0,1,0,0)"><svg width="213.1584412271571" viewBox="3.6500000953674316 -37.150001525878906 51.29999923706055 37.45000076293945" height="155.60981723113125" data-palette-color="#ffffff"><path d="M8.7 0L3.65 0 3.65-29.15Q3.65-31.35 4.33-32.85 5-34.35 6.1-35.23 7.2-36.1 8.58-36.48 9.95-36.85 11.3-36.85L11.3-36.85Q13.35-36.8 15.95-36.77 18.55-36.75 21.38-36.65 24.2-36.55 26.85-36.3L26.85-36.3 26.85-32.2 12.55-32.2Q10.7-32.2 9.7-31.2 8.7-30.2 8.7-28.3L8.7-28.3 8.7-19.75 24.6-19.45 24.6-15.55 8.7-15.25 8.7 0ZM42.9 0.3L42.9 0.3Q41.7 0.3 40.17 0.23 38.65 0.15 37.07 0 35.5-0.15 34.07-0.3 32.65-0.45 31.65-0.7L31.65-0.7 31.65-4.6Q32.95-4.5 34.77-4.4 36.6-4.3 38.67-4.25 40.75-4.2 42.7-4.2L42.7-4.2Q44.85-4.2 46.52-4.6 48.2-5 49.17-6.1 50.15-7.2 50.15-9.2L50.15-9.2 50.15-11.35Q50.15-13.6 48.92-14.8 47.7-16 45.2-16L45.2-16 41.45-16Q36.65-16 34.02-18.1 31.4-20.2 31.4-25.3L31.4-25.3 31.4-27.3Q31.4-32.6 34.27-34.88 37.15-37.15 42.45-37.15L42.45-37.15Q44.2-37.15 46.2-36.98 48.2-36.8 50.1-36.55 52-36.3 53.25-36.05L53.25-36.05 53.25-32.15Q51-32.3 48.22-32.48 45.45-32.65 43-32.65L43-32.65Q40.9-32.65 39.37-32.18 37.85-31.7 37.02-30.5 36.2-29.3 36.2-27.1L36.2-27.1 36.2-25.6Q36.2-22.9 37.65-21.85 39.1-20.8 41.7-20.8L41.7-20.8 45.75-20.8Q48.9-20.8 50.92-19.65 52.95-18.5 53.95-16.5 54.95-14.5 54.95-11.95L54.95-11.95 54.95-9.35Q54.95-5.45 53.35-3.35 51.75-1.25 49.05-0.48 46.35 0.3 42.9 0.3Z" opacity="1" transform="matrix(1,0,0,1,0,0)" fill="#ffffff" class="undefined-text-0" data-fill-palette-color="quaternary" id="text-0"></path></svg></g></svg></g></svg></g></svg></g><g transform="matrix(1,0,0,1,40.713262274387006,0)"><svg viewBox="0 0 131.7319166783831 136.39633846413213" height="136.39633846413213" width="131.7319166783831"><g><svg xmlns="http://www.w3.org/2000/svg" xmlns:xlink="http://www.w3.org/1999/xlink" version="1.1" x="0" y="0" viewBox="10.152499198913574 8.714593887329102 80.14750671386719 82.98540496826172" style="enable-background:new 0 0 100 100;" xml:space="preserve" height="136.39633846413213" width="131.7319166783831" class="icon-icon-0" data-fill-palette-color="quaternary" id="icon-0"><path d="M69.4 91.7H44.7c-7.6 0-14.6-4.1-18.3-10.8L12.8 56.3c-2.8-5-3.4-10.8-1.7-16.3 1.7-5.5 5.4-9.9 10.6-12.5l33-16.6c8.2-4.1 18.3-2.3 24.6 4.3l5.3 5.7c3.7 3.9 5.7 9 5.7 14.3v35.5C90.3 82.3 80.9 91.7 69.4 91.7zM64 11.7c-2.7 0-5.5 0.6-8 1.9L23 30.2c-4.4 2.2-7.6 6-9 10.7s-0.9 9.6 1.4 13.9l13.6 24.6c3.1 5.7 9.1 9.2 15.6 9.2h24.7c9.9 0 17.9-8 17.9-17.9V35.3c0-4.6-1.7-8.9-4.9-12.2l-5.3-5.7C73.6 13.7 68.8 11.7 64 11.7z" fill="#ffffff" data-fill-palette-color="quaternary"></path></svg></g></svg></g><g></g></svg></g></svg></g></svg></g></svg></g><defs></defs></svg><rect width="333.90454557049503" height="333.90454557049503" fill="none" stroke="none" visibility="hidden"></rect></g></svg></g></svg>