{
	"asset":{
		"generator":"Khronos glTF Blender I/O v3.5.30",
		"version":"2.0"
	},
	"extensionsUsed":[
		"KHR_materials_emissive_strength"
	],
	"scene":0,
	"scenes":[
		{
			"name":"Scene",
			"nodes":[
				0,
				1,
				2,
				3,
				4,
				5
			]
		}
	],
	"nodes":[
		{
			"mesh":0,
			"name":"Base",
			"scale":[
				4.02475118637085,
				4.02475118637085,
				4.02475118637085
			],
			"translation":[
				0,
				4.998761177062988,
				0
			]
		},
		{
			"mesh":1,
			"name":"First_layer",
			"rotation":[
				0,
				-1,
				0,
				4.371138828673793e-08
			],
			"scale":[
				51.665191650390625,
				51.665191650390625,
				51.665191650390625
			],
			"translation":[
				-0.25060707330703735,
				2.9101643562316895,
				0.6516104340553284
			]
		},
		{
			"mesh":2,
			"name":"Untitled design (3)",
			"rotation":[
				0,
				-1,
				0,
				4.371138828673793e-08
			],
			"scale":[
				8.176581382751465,
				8.176581382751465,
				8.176581382751465
			],
			"translation":[
				0.042254965752363205,
				2.9140806198120117,
				0
			]
		},
		{
			"mesh":3,
			"name":"Cube",
			"scale":[
				5.023469924926758,
				5.023469924926758,
				5.023469924926758
			],
			"translation":[
				0,
				0.39542147517204285,
				0
			]
		},
		{
			"mesh":4,
			"name":"Curve",
			"rotation":[
				0,
				-1,
				0,
				4.371138473402425e-08
			],
			"scale":[
				54.223358154296875,
				54.223358154296875,
				54.223358154296875
			],
			"translation":[
				-0.1051454022526741,
				3.264291763305664,
				1.6010953187942505
			]
		},
		{
			"mesh":5,
			"name":"Untitled design (5)",
			"rotation":[
				0,
				1,
				0,
				4.371138828673793e-08
			],
			"scale":[
				8.619966506958008,
				8.619966506958008,
				8.619966506958008
			],
			"translation":[
				0,
				3.2704825401306152,
				-0.20368342101573944
			]
		}
	],
	"materials":[
		{
			"doubleSided":true,
			"name":"Texture",
			"pbrMetallicRoughness":{
				"baseColorTexture":{
					"index":0
				},
				"metallicFactor":0,
				"roughnessFactor":0.5
			}
		},
		{
			"doubleSided":true,
			"name":"Material.001",
			"pbrMetallicRoughness":{
				"baseColorTexture":{
					"index":1
				},
				"metallicFactor":0,
				"roughnessFactor":0.5
			}
		},
		{
			"doubleSided":true,
			"name":"Material.002",
			"pbrMetallicRoughness":{
				"baseColorFactor":[
					0,
					0.08645454049110413,
					0.4719522297382355,
					1
				],
				"metallicFactor":0.26605504751205444,
				"roughnessFactor":0.5
			}
		},
		{
			"doubleSided":true,
			"emissiveFactor":[
				0.12070670758596827,
				0.6775333320670117,
				1
			],
			"extensions":{
				"KHR_materials_emissive_strength":{
					"emissiveStrength":5.805191397666931
				}
			},
			"name":"Material.063",
			"pbrMetallicRoughness":{
				"baseColorFactor":[
					0.09509065002202988,
					0.234120175242424,
					0.3883002996444702,
					1
				],
				"metallicFactor":0,
				"roughnessFactor":0.5
			}
		},
		{
			"doubleSided":true,
			"emissiveFactor":[
				1,
				0.05960554629564285,
				0.5265965461730957
			],
			"extensions":{
				"KHR_materials_emissive_strength":{
					"emissiveStrength":100
				}
			},
			"name":"Blacck",
			"pbrMetallicRoughness":{
				"baseColorFactor":[
					0.8000000715255737,
					0,
					0.33187976479530334,
					1
				],
				"metallicFactor":0,
				"roughnessFactor":0.5
			}
		},
		{
			"alphaMode":"BLEND",
			"doubleSided":true,
			"name":"Untitled design (3)",
			"pbrMetallicRoughness":{
				"baseColorTexture":{
					"index":2
				},
				"metallicFactor":0,
				"roughnessFactor":0.5
			}
		},
		{
			"doubleSided":true,
			"emissiveFactor":[
				1,
				0.91590882023141,
				0.41678112273747464
			],
			"extensions":{
				"KHR_materials_emissive_strength":{
					"emissiveStrength":12.599243223667145
				}
			},
			"name":"Material.083",
			"pbrMetallicRoughness":{
				"baseColorFactor":[
					0.8000000715255737,
					0.5911322832107544,
					0.2692561745643616,
					1
				],
				"metallicFactor":0,
				"roughnessFactor":0.5
			}
		},
		{
			"alphaMode":"BLEND",
			"doubleSided":true,
			"name":"Untitled design (5)",
			"pbrMetallicRoughness":{
				"baseColorTexture":{
					"index":3
				},
				"metallicFactor":0,
				"roughnessFactor":0.5
			}
		}
	],
	"meshes":[
		{
			"name":"Cube",
			"primitives":[
				{
					"attributes":{
						"POSITION":0,
						"TEXCOORD_0":1,
						"NORMAL":2
					},
					"indices":3,
					"material":0
				},
				{
					"attributes":{
						"POSITION":4,
						"TEXCOORD_0":5,
						"NORMAL":6
					},
					"indices":7,
					"material":1
				},
				{
					"attributes":{
						"POSITION":8,
						"TEXCOORD_0":9,
						"NORMAL":10
					},
					"indices":11,
					"material":2
				},
				{
					"attributes":{
						"POSITION":12,
						"TEXCOORD_0":13,
						"NORMAL":14
					},
					"indices":15,
					"material":3
				}
			]
		},
		{
			"name":"Curve",
			"primitives":[
				{
					"attributes":{
						"POSITION":16,
						"TEXCOORD_0":17,
						"NORMAL":18
					},
					"indices":19,
					"material":4
				}
			]
		},
		{
			"name":"Untitled design (3)",
			"primitives":[
				{
					"attributes":{
						"POSITION":20,
						"TEXCOORD_0":21,
						"NORMAL":22
					},
					"indices":23,
					"material":5
				}
			]
		},
		{
			"name":"Cube.001",
			"primitives":[
				{
					"attributes":{
						"POSITION":24,
						"TEXCOORD_0":25,
						"NORMAL":26
					},
					"indices":27,
					"material":6
				}
			]
		},
		{
			"name":"Curve.001",
			"primitives":[
				{
					"attributes":{
						"POSITION":28,
						"TEXCOORD_0":29,
						"NORMAL":30
					},
					"indices":31,
					"material":4
				}
			]
		},
		{
			"name":"Untitled design (5)",
			"primitives":[
				{
					"attributes":{
						"POSITION":32,
						"TEXCOORD_0":33,
						"NORMAL":34
					},
					"indices":23,
					"material":7
				}
			]
		}
	],
	"textures":[
		{
			"sampler":0,
			"source":0
		},
		{
			"sampler":0,
			"source":1
		},
		{
			"sampler":1,
			"source":2
		},
		{
			"sampler":1,
			"source":3
		}
	],
	"images":[
		{
			"mimeType":"image/jpeg",
			"name":"photo_2023-04-25_10-57-50",
			"uri":"textures/photo_2023-04-25_10-57-50.jpg"
		},
		{
			"mimeType":"image/png",
			"name":"Untitled design (6)",
			"uri":"textures/Untitled%20design%206.png"
		},
		{
			"mimeType":"image/png",
			"name":"Untitled design (3)",
			"uri":"textures/Untitled%20design%203.png"
		},
		{
			"mimeType":"image/png",
			"name":"Untitled design (5)",
			"uri":"textures/Untitled%20design%205.png"
		}
	],
	"accessors":[
		{
			"bufferView":0,
			"componentType":5126,
			"count":276,
			"max":[
				1,
				-0.6005253791809082,
				1
			],
			"min":[
				-1,
				-0.8002626895904541,
				-1
			],
			"type":"VEC3"
		},
		{
			"bufferView":1,
			"componentType":5126,
			"count":276,
			"type":"VEC2"
		},
		{
			"bufferView":2,
			"componentType":5126,
			"count":276,
			"type":"VEC3"
		},
		{
			"bufferView":3,
			"componentType":5123,
			"count":1242,
			"type":"SCALAR"
		},
		{
			"bufferView":4,
			"componentType":5126,
			"count":4,
			"max":[
				0.8999999761581421,
				-1,
				0.8999999761581421
			],
			"min":[
				-0.8999999761581421,
				-1,
				-0.8999999761581421
			],
			"type":"VEC3"
		},
		{
			"bufferView":5,
			"componentType":5126,
			"count":4,
			"type":"VEC2"
		},
		{
			"bufferView":6,
			"componentType":5126,
			"count":4,
			"type":"VEC3"
		},
		{
			"bufferView":7,
			"componentType":5123,
			"count":6,
			"type":"SCALAR"
		},
		{
			"bufferView":8,
			"componentType":5126,
			"count":259,
			"max":[
				1,
				-0.8002626895904541,
				1
			],
			"min":[
				-1,
				-1,
				-1
			],
			"type":"VEC3"
		},
		{
			"bufferView":9,
			"componentType":5126,
			"count":259,
			"type":"VEC2"
		},
		{
			"bufferView":10,
			"componentType":5126,
			"count":259,
			"type":"VEC3"
		},
		{
			"bufferView":11,
			"componentType":5123,
			"count":822,
			"type":"SCALAR"
		},
		{
			"bufferView":12,
			"componentType":5126,
			"count":209,
			"max":[
				1,
				-0.8663049340248108,
				1
			],
			"min":[
				-1,
				-1,
				-1
			],
			"type":"VEC3"
		},
		{
			"bufferView":13,
			"componentType":5126,
			"count":209,
			"type":"VEC2"
		},
		{
			"bufferView":14,
			"componentType":5126,
			"count":209,
			"type":"VEC3"
		},
		{
			"bufferView":15,
			"componentType":5123,
			"count":606,
			"type":"SCALAR"
		},
		{
			"bufferView":16,
			"componentType":5126,
			"count":13414,
			"max":[
				0.03258625417947769,
				0,
				0.07761161029338837
			],
			"min":[
				-0.047792766243219376,
				-0.007000000216066837,
				-0.06224881857633591
			],
			"type":"VEC3"
		},
		{
			"bufferView":17,
			"componentType":5126,
			"count":13414,
			"type":"VEC2"
		},
		{
			"bufferView":18,
			"componentType":5126,
			"count":13414,
			"type":"VEC3"
		},
		{
			"bufferView":19,
			"componentType":5123,
			"count":26856,
			"type":"SCALAR"
		},
		{
			"bufferView":20,
			"componentType":5126,
			"count":4,
			"max":[
				0.5,
				0,
				0.5
			],
			"min":[
				-0.5,
				0,
				-0.5
			],
			"type":"VEC3"
		},
		{
			"bufferView":21,
			"componentType":5126,
			"count":4,
			"type":"VEC2"
		},
		{
			"bufferView":22,
			"componentType":5126,
			"count":4,
			"type":"VEC3"
		},
		{
			"bufferView":23,
			"componentType":5123,
			"count":6,
			"type":"SCALAR"
		},
		{
			"bufferView":24,
			"componentType":5126,
			"count":38293,
			"max":[
				1,
				0.37502747774124146,
				1
			],
			"min":[
				-1,
				0.31056833267211914,
				-1
			],
			"type":"VEC3"
		},
		{
			"bufferView":25,
			"componentType":5126,
			"count":38293,
			"type":"VEC2"
		},
		{
			"bufferView":26,
			"componentType":5126,
			"count":38293,
			"type":"VEC3"
		},
		{
			"bufferView":27,
			"componentType":5123,
			"count":61536,
			"type":"SCALAR"
		},
		{
			"bufferView":28,
			"componentType":5126,
			"count":12713,
			"max":[
				0.03443411365151405,
				0.00800000037997961,
				0.02517136186361313
			],
			"min":[
				-0.03439398854970932,
				-0.00800000037997961,
				-0.04177112132310867
			],
			"type":"VEC3"
		},
		{
			"bufferView":29,
			"componentType":5126,
			"count":12713,
			"type":"VEC2"
		},
		{
			"bufferView":30,
			"componentType":5126,
			"count":12713,
			"type":"VEC3"
		},
		{
			"bufferView":31,
			"componentType":5123,
			"count":25104,
			"type":"SCALAR"
		},
		{
			"bufferView":32,
			"componentType":5126,
			"count":4,
			"max":[
				0.5,
				0,
				0.5
			],
			"min":[
				-0.5,
				0,
				-0.5
			],
			"type":"VEC3"
		},
		{
			"bufferView":33,
			"componentType":5126,
			"count":4,
			"type":"VEC2"
		},
		{
			"bufferView":34,
			"componentType":5126,
			"count":4,
			"type":"VEC3"
		}
	],
	"bufferViews":[
		{
			"buffer":0,
			"byteLength":3312,
			"byteOffset":0,
			"target":34962
		},
		{
			"buffer":0,
			"byteLength":2208,
			"byteOffset":3312,
			"target":34962
		},
		{
			"buffer":0,
			"byteLength":3312,
			"byteOffset":5520,
			"target":34962
		},
		{
			"buffer":0,
			"byteLength":2484,
			"byteOffset":8832,
			"target":34963
		},
		{
			"buffer":0,
			"byteLength":48,
			"byteOffset":11316,
			"target":34962
		},
		{
			"buffer":0,
			"byteLength":32,
			"byteOffset":11364,
			"target":34962
		},
		{
			"buffer":0,
			"byteLength":48,
			"byteOffset":11396,
			"target":34962
		},
		{
			"buffer":0,
			"byteLength":12,
			"byteOffset":11444,
			"target":34963
		},
		{
			"buffer":0,
			"byteLength":3108,
			"byteOffset":11456,
			"target":34962
		},
		{
			"buffer":0,
			"byteLength":2072,
			"byteOffset":14564,
			"target":34962
		},
		{
			"buffer":0,
			"byteLength":3108,
			"byteOffset":16636,
			"target":34962
		},
		{
			"buffer":0,
			"byteLength":1644,
			"byteOffset":19744,
			"target":34963
		},
		{
			"buffer":0,
			"byteLength":2508,
			"byteOffset":21388,
			"target":34962
		},
		{
			"buffer":0,
			"byteLength":1672,
			"byteOffset":23896,
			"target":34962
		},
		{
			"buffer":0,
			"byteLength":2508,
			"byteOffset":25568,
			"target":34962
		},
		{
			"buffer":0,
			"byteLength":1212,
			"byteOffset":28076,
			"target":34963
		},
		{
			"buffer":0,
			"byteLength":160968,
			"byteOffset":29288,
			"target":34962
		},
		{
			"buffer":0,
			"byteLength":107312,
			"byteOffset":190256,
			"target":34962
		},
		{
			"buffer":0,
			"byteLength":160968,
			"byteOffset":297568,
			"target":34962
		},
		{
			"buffer":0,
			"byteLength":53712,
			"byteOffset":458536,
			"target":34963
		},
		{
			"buffer":0,
			"byteLength":48,
			"byteOffset":512248,
			"target":34962
		},
		{
			"buffer":0,
			"byteLength":32,
			"byteOffset":512296,
			"target":34962
		},
		{
			"buffer":0,
			"byteLength":48,
			"byteOffset":512328,
			"target":34962
		},
		{
			"buffer":0,
			"byteLength":12,
			"byteOffset":512376,
			"target":34963
		},
		{
			"buffer":0,
			"byteLength":459516,
			"byteOffset":512388,
			"target":34962
		},
		{
			"buffer":0,
			"byteLength":306344,
			"byteOffset":971904,
			"target":34962
		},
		{
			"buffer":0,
			"byteLength":459516,
			"byteOffset":1278248,
			"target":34962
		},
		{
			"buffer":0,
			"byteLength":123072,
			"byteOffset":1737764,
			"target":34963
		},
		{
			"buffer":0,
			"byteLength":152556,
			"byteOffset":1860836,
			"target":34962
		},
		{
			"buffer":0,
			"byteLength":101704,
			"byteOffset":2013392,
			"target":34962
		},
		{
			"buffer":0,
			"byteLength":152556,
			"byteOffset":2115096,
			"target":34962
		},
		{
			"buffer":0,
			"byteLength":50208,
			"byteOffset":2267652,
			"target":34963
		},
		{
			"buffer":0,
			"byteLength":48,
			"byteOffset":2317860,
			"target":34962
		},
		{
			"buffer":0,
			"byteLength":32,
			"byteOffset":2317908,
			"target":34962
		},
		{
			"buffer":0,
			"byteLength":48,
			"byteOffset":2317940,
			"target":34962
		}
	],
	"samplers":[
		{
			"magFilter":9729,
			"minFilter":9987
		},
		{
			"magFilter":9729,
			"minFilter":9987,
			"wrapS":33071,
			"wrapT":33071
		}
	],
	"buffers":[
		{
			"byteLength":2317988,
			"uri":"scene.bin"
		}
	]
}
