{
	"asset":{
		"generator":"Khronos glTF Blender I/O v3.5.30",
		"version":"2.0"
	},
	"extensionsUsed":[
		"KHR_materials_emissive_strength"
	],
	"scene":0,
	"scenes":[
		{
			"name":"Scene",
			"nodes":[
				0,
				1,
				2,
				3,
				4
			]
		}
	],
	"nodes":[
		{
			"mesh":0,
			"name":"Base",
			"scale":[
				4.02475118637085,
				4.02475118637085,
				4.02475118637085
			],
			"translation":[
				0,
				4.998761177062988,
				0
			]
		},
		{
			"mesh":1,
			"name":"First_layer",
			"rotation":[
				0,
				-1,
				0,
				4.371138828673793e-08
			],
			"scale":[
				51.665191650390625,
				51.665191650390625,
				51.665191650390625
			],
			"translation":[
				-0.25060707330703735,
				2.9101643562316895,
				0.6516104340553284
			]
		},
		{
			"mesh":2,
			"name":"Untitled design (3)",
			"rotation":[
				0,
				-1,
				0,
				4.371138828673793e-08
			],
			"scale":[
				8.176581382751465,
				8.176581382751465,
				8.176581382751465
			],
			"translation":[
				0.042254965752363205,
				2.9140806198120117,
				0
			]
		},
		{
			"mesh":3,
			"name":"Curve",
			"rotation":[
				0,
				-1,
				0,
				4.371138473402425e-08
			],
			"scale":[
				54.223358154296875,
				54.223358154296875,
				54.223358154296875
			],
			"translation":[
				-0.1051454022526741,
				3.264291763305664,
				1.6010953187942505
			]
		},
		{
			"mesh":4,
			"name":"Untitled design (5)",
			"rotation":[
				0,
				1,
				0,
				4.371138828673793e-08
			],
			"scale":[
				8.619966506958008,
				8.619966506958008,
				8.619966506958008
			],
			"translation":[
				0,
				3.2704825401306152,
				-0.20368342101573944
			]
		}
	],
	"materials":[
		{
			"doubleSided":true,
			"name":"Material",
			"pbrMetallicRoughness":{
				"baseColorFactor":[
					0.04319996014237404,
					0.0374695286154747,
					0.038670364767313004,
					1
				],
				"roughnessFactor":0.71100914478302
			}
		},
		{
			"doubleSided":true,
			"name":"Texture",
			"pbrMetallicRoughness":{
				"baseColorTexture":{
					"index":0
				},
				"metallicFactor":0,
				"roughnessFactor":0.5
			}
		},
		{
			"doubleSided":true,
			"emissiveFactor":[
				0.9635499238866205,
				0.038132955167824674,
				1
			],
			"extensions":{
				"KHR_materials_emissive_strength":{
					"emissiveStrength":15.864695608615875
				}
			},
			"name":"Blacck",
			"pbrMetallicRoughness":{
				"baseColorFactor":[
					0,
					0,
					0,
					1
				]
			}
		},
		{
			"alphaMode":"BLEND",
			"doubleSided":true,
			"name":"Untitled design (3)",
			"pbrMetallicRoughness":{
				"baseColorTexture":{
					"index":1
				},
				"metallicFactor":0,
				"roughnessFactor":0.5
			}
		},
		{
			"alphaMode":"BLEND",
			"doubleSided":true,
			"name":"Untitled design (5)",
			"pbrMetallicRoughness":{
				"baseColorTexture":{
					"index":2
				},
				"metallicFactor":0,
				"roughnessFactor":0.5
			}
		}
	],
	"meshes":[
		{
			"name":"Cube",
			"primitives":[
				{
					"attributes":{
						"POSITION":0,
						"TEXCOORD_0":1,
						"NORMAL":2
					},
					"indices":3,
					"material":0
				},
				{
					"attributes":{
						"POSITION":4,
						"TEXCOORD_0":5,
						"NORMAL":6
					},
					"indices":7,
					"material":1
				}
			]
		},
		{
			"name":"Curve",
			"primitives":[
				{
					"attributes":{
						"POSITION":8,
						"TEXCOORD_0":9,
						"NORMAL":10
					},
					"indices":11,
					"material":2
				}
			]
		},
		{
			"name":"Untitled design (3)",
			"primitives":[
				{
					"attributes":{
						"POSITION":12,
						"TEXCOORD_0":13,
						"NORMAL":14
					},
					"indices":15,
					"material":3
				}
			]
		},
		{
			"name":"Curve.001",
			"primitives":[
				{
					"attributes":{
						"POSITION":16,
						"TEXCOORD_0":17,
						"NORMAL":18
					},
					"indices":19,
					"material":2
				}
			]
		},
		{
			"name":"Untitled design (5)",
			"primitives":[
				{
					"attributes":{
						"POSITION":20,
						"TEXCOORD_0":21,
						"NORMAL":22
					},
					"indices":15,
					"material":4
				}
			]
		}
	],
	"textures":[
		{
			"sampler":0,
			"source":0
		},
		{
			"sampler":1,
			"source":1
		},
		{
			"sampler":1,
			"source":2
		}
	],
	"images":[
		{
			"mimeType":"image/jpeg",
			"name":"photo_2023-04-25_10-57-50",
			"uri":"textures/photo_2023-04-25_10-57-50.jpg"
		},
		{
			"mimeType":"image/png",
			"name":"Untitled design (3)",
			"uri":"textures/Untitled%20design%203.png"
		},
		{
			"mimeType":"image/png",
			"name":"Untitled design (5)",
			"uri":"textures/Untitled%20design%205.png"
		}
	],
	"accessors":[
		{
			"bufferView":0,
			"componentType":5126,
			"count":255,
			"max":[
				1,
				-0.8002626895904541,
				1
			],
			"min":[
				-1,
				-1,
				-1
			],
			"type":"VEC3"
		},
		{
			"bufferView":1,
			"componentType":5126,
			"count":255,
			"type":"VEC2"
		},
		{
			"bufferView":2,
			"componentType":5126,
			"count":255,
			"type":"VEC3"
		},
		{
			"bufferView":3,
			"componentType":5123,
			"count":1242,
			"type":"SCALAR"
		},
		{
			"bufferView":4,
			"componentType":5126,
			"count":276,
			"max":[
				1,
				-0.6005253791809082,
				1
			],
			"min":[
				-1,
				-0.8002626895904541,
				-1
			],
			"type":"VEC3"
		},
		{
			"bufferView":5,
			"componentType":5126,
			"count":276,
			"type":"VEC2"
		},
		{
			"bufferView":6,
			"componentType":5126,
			"count":276,
			"type":"VEC3"
		},
		{
			"bufferView":7,
			"componentType":5123,
			"count":1242,
			"type":"SCALAR"
		},
		{
			"bufferView":8,
			"componentType":5126,
			"count":13414,
			"max":[
				0.03258625417947769,
				0,
				0.07761161029338837
			],
			"min":[
				-0.047792766243219376,
				-0.007000000216066837,
				-0.06224881857633591
			],
			"type":"VEC3"
		},
		{
			"bufferView":9,
			"componentType":5126,
			"count":13414,
			"type":"VEC2"
		},
		{
			"bufferView":10,
			"componentType":5126,
			"count":13414,
			"type":"VEC3"
		},
		{
			"bufferView":11,
			"componentType":5123,
			"count":26856,
			"type":"SCALAR"
		},
		{
			"bufferView":12,
			"componentType":5126,
			"count":4,
			"max":[
				0.5,
				0,
				0.5
			],
			"min":[
				-0.5,
				0,
				-0.5
			],
			"type":"VEC3"
		},
		{
			"bufferView":13,
			"componentType":5126,
			"count":4,
			"type":"VEC2"
		},
		{
			"bufferView":14,
			"componentType":5126,
			"count":4,
			"type":"VEC3"
		},
		{
			"bufferView":15,
			"componentType":5123,
			"count":6,
			"type":"SCALAR"
		},
		{
			"bufferView":16,
			"componentType":5126,
			"count":12713,
			"max":[
				0.03443411365151405,
				0.00800000037997961,
				0.02517136186361313
			],
			"min":[
				-0.03439398854970932,
				-0.00800000037997961,
				-0.04177112132310867
			],
			"type":"VEC3"
		},
		{
			"bufferView":17,
			"componentType":5126,
			"count":12713,
			"type":"VEC2"
		},
		{
			"bufferView":18,
			"componentType":5126,
			"count":12713,
			"type":"VEC3"
		},
		{
			"bufferView":19,
			"componentType":5123,
			"count":25104,
			"type":"SCALAR"
		},
		{
			"bufferView":20,
			"componentType":5126,
			"count":4,
			"max":[
				0.5,
				0,
				0.5
			],
			"min":[
				-0.5,
				0,
				-0.5
			],
			"type":"VEC3"
		},
		{
			"bufferView":21,
			"componentType":5126,
			"count":4,
			"type":"VEC2"
		},
		{
			"bufferView":22,
			"componentType":5126,
			"count":4,
			"type":"VEC3"
		}
	],
	"bufferViews":[
		{
			"buffer":0,
			"byteLength":3060,
			"byteOffset":0,
			"target":34962
		},
		{
			"buffer":0,
			"byteLength":2040,
			"byteOffset":3060,
			"target":34962
		},
		{
			"buffer":0,
			"byteLength":3060,
			"byteOffset":5100,
			"target":34962
		},
		{
			"buffer":0,
			"byteLength":2484,
			"byteOffset":8160,
			"target":34963
		},
		{
			"buffer":0,
			"byteLength":3312,
			"byteOffset":10644,
			"target":34962
		},
		{
			"buffer":0,
			"byteLength":2208,
			"byteOffset":13956,
			"target":34962
		},
		{
			"buffer":0,
			"byteLength":3312,
			"byteOffset":16164,
			"target":34962
		},
		{
			"buffer":0,
			"byteLength":2484,
			"byteOffset":19476,
			"target":34963
		},
		{
			"buffer":0,
			"byteLength":160968,
			"byteOffset":21960,
			"target":34962
		},
		{
			"buffer":0,
			"byteLength":107312,
			"byteOffset":182928,
			"target":34962
		},
		{
			"buffer":0,
			"byteLength":160968,
			"byteOffset":290240,
			"target":34962
		},
		{
			"buffer":0,
			"byteLength":53712,
			"byteOffset":451208,
			"target":34963
		},
		{
			"buffer":0,
			"byteLength":48,
			"byteOffset":504920,
			"target":34962
		},
		{
			"buffer":0,
			"byteLength":32,
			"byteOffset":504968,
			"target":34962
		},
		{
			"buffer":0,
			"byteLength":48,
			"byteOffset":505000,
			"target":34962
		},
		{
			"buffer":0,
			"byteLength":12,
			"byteOffset":505048,
			"target":34963
		},
		{
			"buffer":0,
			"byteLength":152556,
			"byteOffset":505060,
			"target":34962
		},
		{
			"buffer":0,
			"byteLength":101704,
			"byteOffset":657616,
			"target":34962
		},
		{
			"buffer":0,
			"byteLength":152556,
			"byteOffset":759320,
			"target":34962
		},
		{
			"buffer":0,
			"byteLength":50208,
			"byteOffset":911876,
			"target":34963
		},
		{
			"buffer":0,
			"byteLength":48,
			"byteOffset":962084,
			"target":34962
		},
		{
			"buffer":0,
			"byteLength":32,
			"byteOffset":962132,
			"target":34962
		},
		{
			"buffer":0,
			"byteLength":48,
			"byteOffset":962164,
			"target":34962
		}
	],
	"samplers":[
		{
			"magFilter":9729,
			"minFilter":9987
		},
		{
			"magFilter":9729,
			"minFilter":9987,
			"wrapS":33071,
			"wrapT":33071
		}
	],
	"buffers":[
		{
			"byteLength":962212,
			"uri":"scene.bin"
		}
	]
}
